<?xml version="1.0" encoding="UTF-8"?>
<svg width="18px" height="12px" viewBox="0 0 18 12" version="1.1" xmlns="http://www.w3.org/2000/svg" xmlns:xlink="http://www.w3.org/1999/xlink">
    <!-- Generator: Sketch 55.1 (78136) - https://sketchapp.com -->
    <title>dropdown</title>
    <desc>Created with Sketch.</desc>
    <g id="Page-1" stroke="none" stroke-width="1" fill="none" fill-rule="evenodd">
        <g id="Artboard" transform="translate(-789.000000, -1432.000000)" fill="#FFFFFF">
            <g id="dropdown" transform="translate(788.000000, 1432.000000)">
                <path d="M6.69986435,-0.694866852 C7.18491514,-0.727324263 7.60443843,-0.360424838 7.63689584,0.12462595 C7.63951463,0.16376175 7.63951463,0.203028832 7.63689584,0.242164632 L6.87531234,11.6234383 C6.83683314,12.19848 6.37892551,12.6563877 5.80388377,12.6948669 C5.31883298,12.7273243 4.8993097,12.3604248 4.86685229,11.875374 C4.8642335,11.8362382 4.8642335,11.7969712 4.86685229,11.7578354 L5.62843578,0.376561719 C5.66691498,-0.19848002 6.12482261,-0.656387653 6.69986435,-0.694866852 Z" id="Rectangle" transform="translate(6.251874, 6.000000) rotate(-45.000000) translate(-6.251874, -6.000000) "></path>
                <path d="M13.3001356,-0.694866852 C13.8751774,-0.656387653 14.333085,-0.19848002 14.3715642,0.376561719 L15.1331477,11.7578354 C15.1656051,12.2428862 14.7987057,12.6624094 14.3136549,12.6948669 C14.2745191,12.6974856 14.235252,12.6974856 14.1961162,12.6948669 C13.6210745,12.6563877 13.1631669,12.19848 13.1246877,11.6234383 L12.3631042,0.242164632 C12.3306468,-0.242886156 12.6975462,-0.662409442 13.182597,-0.694866852 C13.2217328,-0.697485644 13.2609998,-0.697485644 13.3001356,-0.694866852 Z" id="Rectangle-Copy" transform="translate(13.748126, 6.000000) rotate(-315.000000) translate(-13.748126, -6.000000) "></path>
            </g>
        </g>
    </g>
</svg>