<?xml version="1.0" encoding="UTF-8"?>
<svg width="512px" height="512px" viewBox="0 0 512 512" version="1.1" xmlns="http://www.w3.org/2000/svg" xmlns:xlink="http://www.w3.org/1999/xlink">
    <!-- Generator: Sketch 55.1 (78136) - https://sketchapp.com -->
    <title>love-letter</title>
    <desc>Created with Sketch.</desc>
    <g id="Page-1" stroke="none" stroke-width="1" fill="none" fill-rule="evenodd">
        <g id="home" transform="translate(-728.000000, -188.000000)">
            <g id="love-letter" transform="translate(728.000000, 188.000000)">
                <g id="Group" fill="#B9B9B9" fill-rule="nonzero">
                    <path d="M512,44.138 L512,52.966 L423.724,52.966 L423.724,44.138 C423.724,19.765 443.489,0 467.862,0 C492.235,0 512,19.765 512,44.138 Z" id="Path"></path>
                    <path d="M88.276,459.034 L335.448,459.034 L335.448,467.862 C335.448,492.235 355.213,512 379.586,512 L44.138,512 C19.765,512 0,492.235 0,467.862 L0,459.034 L88.276,459.034 L88.276,459.034 Z" id="Path"></path>
                </g>
                <path d="M423.724,52.966 L423.724,467.863 C423.724,492.236 403.959,512.001 379.586,512.001 C355.213,512.001 335.448,492.236 335.448,467.863 L335.448,459.035 L88.276,459.035 L88.276,44.138 C88.276,19.765 108.041,0 132.414,0 L467.862,0 C443.489,0 423.724,19.765 423.724,44.138 L423.724,52.966 Z M377.468,361.931 C392.095,347.321 392.113,323.628 377.503,309.001 C370.476,301.965 360.934,298.011 350.985,298.018635 C341.045,297.975 331.503,301.912 324.502,308.965 L315.674,317.793 L306.846,308.965 C292.033,294.532 268.314,294.841 253.88,309.654 C239.712,324.202 239.712,347.383 253.88,361.931 L315.673,423.724 L377.468,361.931 Z" id="Shape" fill="#ECECEC" fill-rule="nonzero"></path>
                <path d="M377.468,308.966 C392.034,323.62 392.034,347.278 377.468,361.932 L315.675,423.725 L253.882,361.932 C239.069,347.499 238.76,323.779 253.193,308.966 C267.626,294.153 291.346,293.844 306.158,308.277 C306.388,308.507 306.617,308.736 306.847,308.966 L315.675,317.794 L324.503,308.966 C339.138,294.374 362.831,294.374 377.468,308.966 Z" id="Path" fill="#E00022" fill-rule="nonzero"></path>
                <g id="Group" transform="translate(114.000000, 56.000000)">
                    <rect id="Rectangle" fill="#3D3D3D" fill-rule="nonzero" x="265.586" y="200" width="17.655" height="17.655"></rect>
                    <rect id="Rectangle" fill="#3D3D3D" fill-rule="nonzero" x="0.759" y="200" width="229.517" height="17.655"></rect>
                    <rect id="Rectangle" fill="#3D3D3D" fill-rule="nonzero" x="265.586" y="155.862" width="17.655" height="17.655"></rect>
                    <rect id="Rectangle" fill="#3D3D3D" fill-rule="nonzero" x="0.759" y="155.862" width="229.517" height="17.655"></rect>
                    <rect id="Rectangle" fill="#3D3D3D" fill-rule="nonzero" x="265.586" y="111.724" width="17.655" height="17.655"></rect>
                    <rect id="Rectangle" fill="#3D3D3D" fill-rule="nonzero" x="0.759" y="111.724" width="229.517" height="17.655"></rect>
                    <rect id="Rectangle" fill="#3D3D3D" fill-rule="nonzero" x="265.586" y="67.586" width="17.655" height="17.655"></rect>
                    <rect id="Rectangle" fill="#3D3D3D" fill-rule="nonzero" x="0.759" y="67.586" width="229.517" height="17.655"></rect>
                    <rect id="Rectangle" fill="#3D3D3D" fill-rule="nonzero" x="0.759" y="288.276" width="97.103" height="17.655"></rect>
                    <text id="sendapoem.org" font-family="AvenirNext-Medium, Avenir Next" font-size="30" font-weight="400" fill="#353535">
                        <tspan x="32" y="30">sendapoem.org</tspan>
                    </text>
                </g>
            </g>
        </g>
    </g>
</svg>